<?xml version="1.0" standalone="no"?>
<!DOCTYPE svg PUBLIC "-//W3C//DTD SVG 20010904//EN"
 "http://www.w3.org/TR/2001/REC-SVG-20010904/DTD/svg10.dtd">
<svg version="1.0" xmlns="http://www.w3.org/2000/svg"
 width="432.000000pt" height="432.000000pt" viewBox="0 0 432.000000 432.000000"
 preserveAspectRatio="xMidYMid meet">
<metadata>
Created by potrace 1.10, written by Peter Selinger 2001-2011
</metadata>
<g transform="translate(0.000000,432.000000) scale(0.100000,-0.100000)"
fill="#1f90ff" stroke="none">
<path d="M2823 3682 c-60 -56 -90 -124 -131 -293 -54 -223 -78 -427 -86 -732
-3 -114 -10 -216 -16 -227 -6 -11 -23 -23 -38 -26 -15 -4 -33 -11 -40 -17 -20
-16 -153 -27 -567 -44 -121 -6 -227 -13 -236 -17 -21 -9 -128 18 -147 38 -9 8
-19 39 -24 68 -24 156 -27 188 -28 245 0 40 -7 78 -20 105 -19 41 -29 124 -61
473 -12 129 -38 273 -56 308 -7 15 -20 27 -29 27 -8 0 -27 20 -42 45 -15 24
-30 45 -34 45 -4 0 -16 -17 -27 -38 -11 -21 -31 -43 -45 -50 -24 -11 -26 -9
-32 23 -12 66 -40 31 -73 -90 l-9 -30 -7 33 c-4 17 -11 32 -15 32 -25 0 -16
-268 16 -480 45 -299 80 -561 89 -677 7 -72 5 -87 -15 -127 -12 -25 -19 -53
-16 -63 3 -13 -5 -24 -27 -38 -17 -11 -33 -28 -35 -38 -3 -13 4 -17 32 -17 44
0 49 -9 31 -54 -8 -19 -15 -47 -15 -61 0 -21 5 -25 28 -25 24 0 31 -8 62 -72
l35 -73 3 -385 c4 -371 9 -431 33 -387 6 9 18 17 27 17 10 0 23 5 30 12 8 8
15 8 24 0 7 -5 27 -12 43 -14 24 -2 31 -8 33 -30 6 -54 58 -60 103 -12 12 13
28 24 35 24 10 0 13 91 16 428 4 503 -2 477 100 486 35 3 178 10 319 16 140 6
298 15 350 20 52 5 123 12 159 16 91 9 107 -6 120 -106 22 -176 35 -244 76
-401 55 -210 122 -419 175 -540 26 -61 42 -115 46 -154 6 -71 51 -195 73 -202
8 -3 25 -10 37 -16 17 -7 33 -7 62 3 21 7 44 9 50 6 13 -8 111 25 111 37 0 5
9 20 20 34 27 35 27 79 -1 86 -12 3 -18 10 -14 16 3 6 10 9 15 6 27 -17 22
103 -5 125 -8 7 -15 24 -15 38 0 14 -7 33 -16 43 -9 10 -16 33 -17 53 0 19 -6
34 -11 33 -6 -1 -14 21 -17 48 -3 28 -7 44 -7 38 -1 -7 -7 -13 -13 -13 -6 0
-8 16 -4 44 8 54 -1 75 -20 49 -12 -16 -14 -10 -12 42 2 48 -1 60 -13 59 -11
-1 -15 8 -12 35 4 53 -32 157 -53 153 -14 -3 -15 4 -9 56 5 45 2 66 -10 90 -9
17 -16 46 -16 65 0 19 -7 56 -15 83 -8 27 -15 72 -15 99 0 67 -11 126 -21 119
-5 -3 -8 30 -7 73 1 43 1 233 0 423 -1 196 3 373 9 410 6 36 14 97 19 135 4
39 14 90 20 115 24 87 72 225 85 246 17 27 9 133 -11 141 -9 3 -10 11 -3 30
17 44 13 46 -61 40 l-69 -6 6 30 6 30 -39 -6 c-21 -4 -43 -11 -48 -16 -16 -14
-29 -10 -22 6 9 25 -8 17 -51 -23z"/>
</g>
</svg>
